<svg xmlns="http://www.w3.org/2000/svg" xmlns:xlink="http://www.w3.org/1999/xlink" version="1.1" x="0px" y="0px" viewBox="0 0 96.001 120" enable-background="new 0 0 96.001 96" xml:space="preserve"><g><g><g><path d="M47.686,47.766c-1.525-2.176-5.596-4.969-8.421-3.767c-0.971,0.414-1.653,2.096-2.502,2.133     c-1.311,0.057-2.11,0.292-2.578,1.563c-0.453,1.228,0.555,2.936,1.06,4.001c0.429,0.906,0.959,1.767,1.45,2.64     c1.105,1.968-0.995,5.054-1.765,6.929c-0.511,1.245-0.584,2.429-0.576,3.741c0.15,0.81-0.391,0.475-1.621-1.002     c-0.013-0.822,0.057-1.639,0.209-2.449c0.32-2.239,0.369-4.09-0.126-6.318c-0.408-1.835-1.188-2.629-2.869-3.236     c-2.368-0.856-5.027,5.529-6.025-3.448c-0.37-3.326,2.77-4.866,4.875-6.461c1.482-1.123,1.482-3.352,1.323-4.993     c-0.392-4.038,7.984-2.781,10.192-4.319c2.071-1.443,2.237-5.109,5.25-5.471c1.939-0.233,8.548,8.013,10.262,9.672     c2.794,2.705,0.117,7.603-0.272,10.748c-0.447,3.612-2.153,5.543-5.993,5.968c-2.396,0.266-1.683-4.458-1.787-5.615     c-0.071-0.796-1.322-0.803-1.25,0c0.353,3.947-0.78,7.598,4.561,6.692c6.933-1.176,4.239-6.968,7.018-11.74     c3.106-5.334-4.926-9.738-7.346-13.454c-2.264-3.477-6.166-4.963-8.871-1.116c-1.184,1.684-1.475,3.124-3.747,4.07     c-1.45,0.604-3.943-0.013-5.52,0.027c-1.988,0.052-3.25,1.313-3.801,3.072c-0.66,2.105,1.107,4.049-1.23,5.82     C26.822,42.029,26,42.375,25.247,43c-1.911,1.583-2.723,4.23-2.459,6.601c0.216,1.942,1.916,3.095,3.455,3.95     c0.397,0.22,1.031,0.258,1.447,0.145c3.524-0.958,4.289,2.656,4.349,5.199c0.078,3.357-2.132,8.467,3.219,8.08     c0.421-0.03,0.689-0.374,0.603-0.791c-0.7-3.364,0.667-4.923,1.673-7.848c0.31-0.899,1.052-2.736,0.647-3.751     c-0.535-1.34-5.071-7.741-0.479-7.061c0.312,0.046,0.703-0.073,0.769-0.437c0.851-4.707,7.134-0.12,8.137,1.31     C47.065,49.051,48.149,48.427,47.686,47.766L47.686,47.766z"/></g></g><g><g><path d="M62.514,63.494c5.466-0.33,6.968-2.802,3.455-7.209c-1.046-1.312-2.147-2.581-3.094-3.969     c-1.521-2.23,2.791-5.738,4.595-3.45c0.785,0.995,1.694,1.901,2.494,2.888c1.416,1.747,3.853,4.518,6.333,3.224     c1.651-0.861,3.803-1.611,5.521-2.324c0.362-0.131,0.724-0.263,1.085-0.394c1.847-0.922,2.791,0.18,2.833,3.305     c-0.92,0.537-2.123,0.817-3.141,1.145c-2.5,0.802-3.724,1.961-4.512,4.497c-1.11,3.57-0.528,7.604-1.071,11.273     c-0.215,1.454-0.7,2.832-1.941,3.753c-0.94,0.697-3.245,0.748-3.444-0.81c-0.477-3.74,1.016-7.841,1.639-11.517     c0.064-0.376-0.164-0.815-0.603-0.791c-3.598,0.201-5.755,1.801-7.351,4.986c-0.879,1.756-1.453,3.636-2.435,5.348     c-0.38,0.662-4.643,3.341-4.297,2.125c0.803-2.82,1.973-5.321,3.795-7.622c0.266-0.335,0.225-0.727-0.126-0.981     c-1.724-1.248-3.464-2.257-5.391-3.158c-0.538-0.227-1.077-0.451-1.618-0.671c1.072-0.946,2.144-1.891,3.215-2.837     c1.568,0.508,2.741,1.468,3.519,2.881c0.438,0.672,1.521,0.046,1.079-0.631c-2.835-4.349-8.416-5.109-10.131,0.439     c-0.107,0.348,0.126,0.652,0.437,0.769c0.896,0.338,8.322,2.695,7.109,4.6c-1.658,2.604-2.645,5.302-3.486,8.26     c-0.109,0.384,0.197,0.802,0.603,0.791c3.943-0.105,6.071-2.15,7.546-5.694c1.239-2.979,2.223-6.03,5.591-7.134     c1.976-0.648,0.195,4.895,0.07,5.549c-0.445,2.325-0.503,4.598-0.204,6.944c0.045,0.354,0.251,0.603,0.625,0.625     c9.527,0.561,6.625-9.601,8.076-16.164c1.04-4.705,6.193-2.882,8.562-5.988c1.531-2.007,0.551-4.52-1.864-5.033     c-2.922-0.621-7.804,2.137-10.322,3.381c-3.676,1.817-6.722-8.113-11.122-7.604c-2.58,0.299-3.892,3.07-3.392,5.353     c0.736,3.367,10.382,10.05,1.362,10.595C61.713,62.292,61.708,63.543,62.514,63.494L62.514,63.494z"/></g></g><g><g><path d="M52.34,71.029c-1.527,0.905-3.113,1.705-4.64,2.61c-0.692,0.411-0.064,1.491,0.631,1.079     c1.527-0.905,3.113-1.705,4.64-2.61C53.663,71.697,53.035,70.617,52.34,71.029L52.34,71.029z"/></g></g><g><g><path d="M41.181,74.735c-1.946,0.555-3.887,1.097-5.923,1.138c-0.805,0.016-0.807,1.266,0,1.25     c2.148-0.043,4.202-0.597,6.255-1.183C42.287,75.72,41.958,74.514,41.181,74.735L41.181,74.735z"/></g></g><g><g><path d="M27.428,74.133c-2.329,0.235-4.59-0.247-6.644-1.364c-0.708-0.385-1.339,0.694-0.631,1.079     c2.234,1.216,4.735,1.792,7.275,1.535C28.222,75.303,28.23,74.052,27.428,74.133L27.428,74.133z"/></g></g><g><g><path d="M14.545,67.486c-2.083-0.842-3.202-2.783-4.266-4.643c-0.4-0.7-1.48-0.07-1.079,0.631     c1.254,2.194,2.581,4.235,5.013,5.217C14.961,68.994,15.283,67.784,14.545,67.486L14.545,67.486z"/></g></g><g><g><path d="M8.625,56.49c0.038-2.87,0.52-5.727-0.022-8.575c-0.15-0.792-1.355-0.456-1.205,0.332c0.518,2.723,0.014,5.5-0.022,8.243     C7.364,57.297,8.614,57.295,8.625,56.49L8.625,56.49z"/></g></g><g><g><path d="M10.859,38.538c0.833-1.418,1.487-2.931,2.32-4.35c0.409-0.697-0.671-1.325-1.079-0.631     c-0.833,1.418-1.487,2.931-2.32,4.35C9.371,38.604,10.452,39.232,10.859,38.538L10.859,38.538z"/></g></g><g><g><path d="M19.171,26.195c1.682-1.4,3.372-2.77,5.383-3.672c0.734-0.33,0.098-1.406-0.631-1.079     c-2.104,0.944-3.876,2.402-5.636,3.867C17.667,25.828,18.556,26.707,19.171,26.195L19.171,26.195z"/></g></g><g><g><path d="M34.263,20.557c1.5-0.58,3.059-0.893,4.64-1.16c0.794-0.134,0.456-1.338-0.332-1.205c-1.581,0.266-3.14,0.58-4.64,1.16     C33.188,19.639,33.51,20.848,34.263,20.557L34.263,20.557z"/></g></g><g><g><path d="M43.376,19.419c1.721,0.021,3.344,0.331,4.904,1.074c0.724,0.345,1.358-0.732,0.631-1.079     c-1.762-0.84-3.587-1.222-5.535-1.245C42.57,18.16,42.571,19.41,43.376,19.419L43.376,19.419z"/></g></g><g><g><path d="M54.95,22.813c1.557,1.047,3.037,2.21,4.639,3.189c0.69,0.422,1.317-0.66,0.631-1.079     c-1.602-0.979-3.083-2.142-4.639-3.189C54.91,21.283,54.285,22.366,54.95,22.813L54.95,22.813z"/></g></g><g><g><path d="M62.782,33.168c0.271,1.068,0.598,2.122,0.87,3.19c0.198,0.781,1.404,0.45,1.205-0.332     c-0.271-1.068-0.598-2.122-0.87-3.19C63.789,32.055,62.583,32.387,62.782,33.168L62.782,33.168z"/></g></g><g><g><path d="M66.574,42.907c-0.265-0.309-0.379-0.375-0.343-0.199c0.014,0.146,0.007,0.297,0.008,0.443     c0.001,0.806,1.251,0.806,1.25,0c-0.001-0.709-0.076-1.402-0.915-1.495C65.773,41.568,65.782,42.819,66.574,42.907L66.574,42.907     z"/></g></g></g><text x="0" y="111" fill="#000000" font-size="5px" font-weight="bold" font-family="'Helvetica Neue', Helvetica, Arial-Unicode, Arial, Sans-serif">Created by faisalovers</text><text x="0" y="116" fill="#000000" font-size="5px" font-weight="bold" font-family="'Helvetica Neue', Helvetica, Arial-Unicode, Arial, Sans-serif">from the Noun Project</text></svg>