<svg xmlns="http://www.w3.org/2000/svg" xmlns:xlink="http://www.w3.org/1999/xlink" version="1.1" x="0px" y="0px" viewBox="0 0 96 120" enable-background="new 0 0 96 96" xml:space="preserve"><g><g><g><path d="M23.624,71.863c1.914-4.315,3.347-8.786,4.776-13.279c0.779-2.449,1.608-4.876,2.523-7.277     c0.666-1.748,7.822,2.729,9.021,3.386c2.016,1.105,3.58,1.376,3.828,3.766c0.151,1.453,0.236,2.914,0.327,4.372     c0.113,1.826,0.963,5.67,0.265,7.324c-0.31,0.733,0.767,1.371,1.079,0.631c0.422-0.999,0.146-2.434,0.115-3.478     c-0.085-2.953-0.267-5.908-0.536-8.849c-0.185-2.019-0.044-2.513-1.897-3.465c-4.004-2.059-7.81-4.335-12.063-5.867     c-0.348-0.125-0.648,0.141-0.769,0.437c-2.902,7.114-4.63,14.638-7.749,21.669C22.221,71.962,23.298,72.598,23.624,71.863     L23.624,71.863z"/></g></g><g><g><path d="M31.499,49.895c1.544-3.783,3.504-7.395,4.979-11.204c1.505-3.887,2.046-8.169,4.116-11.811     c0.193-0.339,0.026-0.826-0.374-0.918c-4.757-1.097-8.477-4.91-3.388-8.565c1.216-0.874,2.709-1.172,4.173-1.189     c1.027,0.056,1.975,0.363,2.841,0.921c0.225,2.169,0.45,4.338,0.674,6.507c-1.447,1.286-3.115,1.964-5.005,2.034     c-0.796,0.071-0.803,1.321,0,1.25c4.592-0.408,9.746-4.146,6.927-9.07c-2.159-3.771-8.08-3.533-10.99-0.988     c-2.994,2.619-3.412,6.133-0.114,8.633c0.394,0.299,3.798,1.418,3.452,2.028c-1.021,1.795-1.419,4.026-1.914,5.995     c-1.412,5.618-4.404,10.706-6.583,16.044C29.989,50.31,31.198,50.631,31.499,49.895L31.499,49.895z"/></g></g><g><g><path d="M37.195,34.709c4.761,1.618,2.6,7.633,8.501,7.551c4.803-0.067,9.857-2.828,14.068-4.921     c0.722-0.359,0.088-1.437-0.631-1.079c-4.211,2.093-8.7,4.273-13.437,4.75c-4.298,0.433-4.298-6.191-8.169-7.506     C36.762,33.244,36.436,34.451,37.195,34.709L37.195,34.709z"/></g></g><g><g><path d="M37.63,33.923c7.836-0.457,13.97,0.05,19.125-6.774c0.486-0.644-0.6-1.266-1.079-0.631     c-4.808,6.365-10.875,5.737-18.046,6.155C36.829,32.72,36.824,33.97,37.63,33.923L37.63,33.923z"/></g></g><g><g><path d="M60.978,19.022c-0.238,16.498-6.229,32.25-6.464,48.754c-0.011,0.807,1.239,0.805,1.25,0     c0.235-16.502,6.226-32.254,6.464-48.754C62.24,18.215,60.99,18.217,60.978,19.022L60.978,19.022z"/></g></g><g><g><path d="M14.9,76.19c8.515-1.173,16.508-4.48,24.959-5.96c8.544-1.496,15.899-3.292,23.567-7.536     c1.895-1.048,0.703,5.459,3.544,4.772c2.584-0.624,4.974-2.297,7.35-3.426c2.641-1.254,5.441-2.224,8.147-3.331     c2.196-0.898,2.483-1.291,2.483,1.252c0,3.015-0.029,5.857,0.51,8.82c0.953,5.234-1.322,5.975-6.029,5.987     c-5.428,0.015-10.791-1.386-16.212-1.268c-9.849,0.213-19.696,2.212-29.455,3.387c-4.899,0.59-9.813,0.929-14.746,0.966     c-2.457,0.019-4.906-0.153-7.352-0.37c-1.804-1.562-1.564-2.448,0.721-2.658C13.222,76.6,14.059,76.388,14.9,76.19     c0.783-0.191,0.451-1.396-0.332-1.205c-3.139,0.767-5.465,1.411-7.107,4.328c-0.179,0.317-0.039,0.858,0.374,0.918     c10.529,1.541,20.975,0.596,31.465-0.793c9.513-1.26,19.324-3.364,28.949-2.376c5.334,0.547,12.228,2.332,17.34-0.016     c1.567-0.72,1.56-2.34,1.496-3.824c-0.209-4.888-0.883-9.65-0.883-14.604c0-0.504-0.523-0.738-0.94-0.54     c-4.82,2.29-9.894,3.947-14.639,6.401c-0.745,0.385-3.91,2.688-4.369,0.966c-0.382-1.436-0.631-2.877-1.085-4.3     c-0.122-0.383-0.558-0.583-0.918-0.374c-7.923,4.595-15.7,7.01-24.724,8.253c-8.495,1.17-16.442,4.787-24.958,5.96     C13.772,75.095,14.113,76.299,14.9,76.19L14.9,76.19z"/></g></g><g><g><path d="M76.464,20.638c-2.959-1.75-5.208,2.558-5.463,4.91c-0.269,2.472,1.837,4.665,4.29,4.214     c2.155-0.396,3.988-2.486,4.649-4.482c0.836-2.524-1.003-4.273-3.356-4.706c-0.788-0.145-1.124,1.06-0.332,1.205     c1.657,0.304,2.994,1.174,2.528,3.015c-0.375,1.48-1.606,2.761-2.929,3.453c-1.575,0.823-2.877,0.054-3.486-1.508     c-0.627-1.608,1.281-6.317,3.468-5.023C76.528,22.128,77.157,21.047,76.464,20.638L76.464,20.638z"/></g></g><g><g><path d="M75.782,17.309c0.449-0.449,0.898-0.898,1.347-1.347c0.571-0.57-0.313-1.454-0.884-0.884     c-0.449,0.449-0.898,0.898-1.347,1.347C74.328,16.996,75.211,17.879,75.782,17.309L75.782,17.309z"/></g></g><g><g><path d="M80.997,20.994c0.64-0.023,1.245-0.253,1.886-0.27c0.805-0.02,0.807-1.27,0-1.25c-0.643,0.016-1.251,0.247-1.886,0.27     C80.193,19.773,80.19,21.023,80.997,20.994L80.997,20.994z"/></g></g><g><g><path d="M82.613,29.344c0.378,0.031,0.647,0.473,0.807,0.768c0.384,0.709,1.463,0.078,1.079-0.631     c-0.397-0.735-1.028-1.317-1.886-1.387C81.809,28.029,81.815,29.28,82.613,29.344L82.613,29.344z"/></g></g><g><g><path d="M77.495,34.06c-0.452,0.665-0.997,1.21-1.662,1.662c-0.663,0.45-0.038,1.534,0.631,1.079     c0.849-0.577,1.533-1.26,2.11-2.11C79.028,34.022,77.944,33.397,77.495,34.06L77.495,34.06z"/></g></g><g><g><path d="M68.44,32.696c-0.463,0.146-0.94,0.277-1.404,0.063c-0.727-0.335-1.362,0.742-0.631,1.079     c0.791,0.365,1.546,0.322,2.367,0.063C69.539,33.659,69.211,32.452,68.44,32.696L68.44,32.696z"/></g></g><g><g><path d="M68.24,26.661c-0.359-0.359-0.718-0.718-1.077-1.078c-0.57-0.571-1.454,0.313-0.884,0.884     c0.359,0.359,0.718,0.718,1.077,1.078C67.926,28.116,68.811,27.232,68.24,26.661L68.24,26.661z"/></g></g><g><g><path d="M68.51,19.464c0.475-0.569,0.475-1.123,0-1.691c-0.517-0.62-1.396,0.27-0.884,0.884c0-0.025,0-0.051,0-0.076     C67.113,19.194,67.993,20.083,68.51,19.464L68.51,19.464z"/></g></g><g><g><path d="M65.277,50.171c2.346-3.029,3.703-6.61,5.754-9.823c-0.36,0-0.719,0-1.079,0c2.5,3.602,5.042,7.173,7.542,10.774     c0.456,0.657,1.54,0.033,1.079-0.631c-2.5-3.602-5.042-7.173-7.542-10.774c-0.27-0.389-0.814-0.415-1.079,0     c-1.991,3.117-3.284,6.632-5.559,9.57C63.906,49.916,64.784,50.808,65.277,50.171L65.277,50.171z"/></g></g><g><g><path d="M75.117,47.306c2.533-1.764,4.667-3.882,6.591-6.293c-0.294,0-0.589,0-0.884,0c2.66,2.218,4.49,5.207,6.734,7.812     c0.527,0.612,1.407-0.276,0.884-0.884c-2.243-2.603-4.074-5.594-6.734-7.812c-0.238-0.199-0.658-0.283-0.884,0     c-1.856,2.326-3.888,4.391-6.338,6.098C73.83,46.684,74.454,47.768,75.117,47.306L75.117,47.306z"/></g></g><g><g><path d="M33.277,44.701c-1.472-0.645-2.972-1.257-4.253-2.249c-2.224-1.721-1.369-4.725-0.766-7.011     c0.568-2.156,1-4.885,3.398-5.727c1.921-0.674,4.435,0.608,6.514,0.349c0.789-0.098,0.798-1.35,0-1.25     c-2.359,0.294-5.402-1.329-7.648-0.012c-2.278,1.336-2.832,3.913-3.469,6.308c-0.614,2.311-1.125,4.492-0.123,6.75     c0.934,2.106,3.803,3.083,5.717,3.921C33.377,46.1,34.014,45.023,33.277,44.701L33.277,44.701z"/></g></g></g><text x="0" y="111" fill="#000000" font-size="5px" font-weight="bold" font-family="'Helvetica Neue', Helvetica, Arial-Unicode, Arial, Sans-serif">Created by faisalovers</text><text x="0" y="116" fill="#000000" font-size="5px" font-weight="bold" font-family="'Helvetica Neue', Helvetica, Arial-Unicode, Arial, Sans-serif">from the Noun Project</text></svg>