<svg xmlns="http://www.w3.org/2000/svg" xmlns:xlink="http://www.w3.org/1999/xlink" version="1.1" x="0px" y="0px" viewBox="0 0 96 120" enable-background="new 0 0 96 96" xml:space="preserve"><g><g><g><path d="M14.024,76.578c8.684-10.76,19.39-19.425,33.924-18.796c7.368,0.319,15.026,1.961,21.572,5.421     c5.579,2.949,5.954,9.883,10.132,14.105c0.567,0.574,1.451-0.311,0.884-0.884c-4.398-4.445-4.706-10.886-10.385-14.301     c-6.117-3.677-13.811-4.877-20.805-5.499c-15.37-1.366-27.023,7.692-36.206,19.069C12.639,76.315,13.518,77.206,14.024,76.578     L14.024,76.578z"/></g></g><g><g><path d="M87.229,71.667c-3.04,4.898-9.298,7.792-14.523,4.66c-1.975-1.184-3.91-2.78-6.333-2.876     c-2.539-0.1-4.247,0.854-6.246,2.353c-4.855,3.641-8.524,2.038-12.75-1.608c-5.066-4.371-10.889-3.787-16.885-1.707     c-6.229,2.162-17.848,7.248-21.953-1.054c-0.357-0.723-1.435-0.089-1.079,0.631c2.828,5.72,9.638,5.482,15.103,4.452     c5.331-1.005,9.919-4.011,15.42-4.493c6.054-0.531,8.995,4.444,13.754,6.895c2.465,1.269,5.03,0.581,7.25-0.738     c1.866-1.109,3.22-2.594,5.316-3.367c2.758-1.018,5.63,1.197,7.771,2.592c5.701,3.715,12.9,0.263,16.233-5.108     C88.734,71.611,87.652,70.984,87.229,71.667L87.229,71.667z"/></g></g><g><g><path d="M42.734,57.62c3.478-2.168,5.909-4.452,10.334-3.308c4.125,1.066,8.006,3.495,11.36,6.054     c0.641,0.489,1.263-0.597,0.631-1.079c-3.892-2.969-8.188-5.283-12.94-6.512c-3.924-1.015-6.968,1.864-10.017,3.765     C41.421,56.966,42.048,58.048,42.734,57.62L42.734,57.62z"/></g></g><g><g><path d="M22.324,66.003c-0.277-1.79-0.652-3.559-0.93-5.349c-0.256,0.256-0.512,0.512-0.769,0.769     c0.851,0.179,1.706,0.286,2.558,0.465c0.365,0.077,0.83-0.174,0.791-0.603c-0.204-2.233-0.805-3.172,1.535-2.188     c0.293,0.124,0.715-0.131,0.769-0.437c0.431-2.473,0.017-4.889,0.255-7.375c-0.355,0.147-0.711,0.294-1.067,0.442     c2.133,1.788,4,3.785,6.406,5.214c0.313,0.187,0.861,0.033,0.918-0.374c0.214-1.52,0.687-2.518,2.211-1.12     c0.382,0.351,1.089,0.129,1.067-0.442c-0.04-0.999,0.114-2.029,0.232-3.023c-0.313,0.18-0.627,0.36-0.94,0.54     c2.345,1.598,4.137,3.892,6.744,5.098c0.727,0.336,1.362-0.741,0.631-1.079c-2.599-1.202-4.407-3.505-6.744-5.098     c-0.434-0.296-0.89,0.113-0.94,0.54c-0.224,1.882-0.294,1.446-0.232,3.023c0.355-0.147,0.711-0.294,1.067-0.442     c-0.938-0.86-1.911-1.646-2.917-2.423c-0.298-0.23-0.865,0-0.918,0.374c0.001-0.012-0.32,2.888-0.675,2.678     c-1.831-1.088-3.388-2.977-5.025-4.349c-0.435-0.364-1.014-0.117-1.067,0.442c-0.142,1.48-0.083,2.855,0.017,4.337     c0.179,2.66-0.52,1.97-2.017,1.34c-0.359-0.151-0.825,0.229-0.791,0.603c0.212,2.316,1.018,3.19-1.535,2.653     c-0.5-0.105-0.843,0.291-0.769,0.769c0.278,1.79,0.653,3.559,0.93,5.349C21.242,67.13,22.446,66.791,22.324,66.003L22.324,66.003     z"/></g></g><g><g><path d="M53.326,53.588c7.322-7.596,15.125-16.266,13.417-27.585c-0.12-0.795-1.324-0.456-1.205,0.332     c1.632,10.811-6.154,19.168-13.095,26.369C51.883,53.284,52.766,54.169,53.326,53.588L53.326,53.588z"/></g></g><g><g><path d="M65.21,26.009c-7.058,0.469-10.747,6.33-14.861,11.346c0.355,0.147,0.711,0.294,1.067,0.442     c-0.47-6.639,4.204-11.759,8.887-15.837c0.394-0.343,0.096-1.121-0.442-1.067c-2.158,0.217-4.176,0.664-6.172,1.567     c-1.121,0.507-10.141,4.194-10.206,4.536c1.208-6.354,9.643-9.169,14.368-12.38c0.409-0.278,0.392-0.798,0-1.079     c-2.538-1.819-6.217-3.383-9.385-3.109c0.055,0.409,0.111,0.818,0.166,1.228C54.739,9.572,60.435,10.428,65,15.216     c0.221,0.231,0.667,0.256,0.884,0c5.42-6.394,11.782-4.95,18.545-1.763c0.105-0.388,0.21-0.776,0.315-1.165     c-4.49-0.13-9.33,0.567-12.768,3.672c-0.449,0.406-0.05,1.008,0.442,1.067c7.719,0.929,13.451,5.707,13.794,13.793     c0.355-0.147,0.711-0.294,1.067-0.442c-3.988-3.338-8.41-5.457-13.299-7.137c-0.511-0.176-1.002,0.47-0.706,0.918     c4.79,7.228,6.253,13.795,1.396,21.462c0.381,0.05,0.762,0.1,1.142,0.149c-2.122-7.254-2.769-15.386-9.59-19.908     c-0.674-0.447-1.299,0.636-0.631,1.079c6.464,4.285,7.017,12.33,9.016,19.161c0.155,0.53,0.853,0.605,1.142,0.149     c5.086-8.026,3.664-15.089-1.396-22.724c-0.235,0.306-0.471,0.612-0.706,0.918c4.708,1.619,8.914,3.607,12.748,6.816     c0.389,0.325,1.092,0.147,1.067-0.442c-0.373-8.782-6.598-14.027-15.044-15.043c0.147,0.355,0.294,0.711,0.442,1.067     c3.184-2.875,7.764-3.425,11.884-3.306c0.597,0.017,0.887-0.895,0.315-1.165c-5.046-2.378-11.761-5.124-16.823-1.189     c-1.815,1.411-2.447,2.863-4.531,1.08c-1.177-1.007-2.573-1.603-3.979-2.192C56.099,8.552,51.878,9.229,48.3,10.45     c-0.633,0.216-0.572,1.292,0.166,1.228c2.747-0.238,5.747,1.141,8.075,2.452c-0.62-0.349-5.452,3.106-6.193,3.553     c-3.984,2.398-7.399,5.45-8.299,10.181c-0.086,0.452,0.281,0.909,0.769,0.769c5.886-1.698,10.84-5.867,17.043-6.489     c-0.147-0.355-0.295-0.711-0.442-1.067c-4.933,4.296-9.745,9.778-9.253,16.721c0.035,0.487,0.69,0.901,1.067,0.442     c3.817-4.654,7.34-10.538,13.977-10.979C66.01,27.206,66.015,25.956,65.21,26.009L65.21,26.009z"/></g></g><g><g><path d="M29.766,52.98c-1.78-4.86-2.268-10.378-1.395-15.482c0.072-0.423-0.277-0.949-0.769-0.769     c-4.446,1.63-5.995,5.766-9.113,8.998c0.355,0.147,0.711,0.294,1.067,0.442c0.111-5.043,2.639-9.198,4.396-13.787     c0.184-0.48-0.348-0.854-0.769-0.769c-2.158,0.438-3.769,1.59-5.575,2.811c-1.67,1.128-2.881,0.417-1.766-1.496     c2.139-3.669,4.481-2.807,7.778-3.758c1.663-0.48,2.435-1.403,3.328-2.882c0.53-0.879,0.947-1.83,1.469-2.717     c1.925-0.416,2.409,0.133,1.451,1.647c-0.452,1.33-1.1,2.55-1.942,3.659c-0.231,0.34,0.005,0.813,0.374,0.918     c4.448,1.263,7.868,2.463,10.324,6.689c0.235-0.306,0.471-0.612,0.706-0.918c-2.808-0.685-5.33-2.105-8.139-2.791     c-0.479-0.117-1.059,0.45-0.706,0.918c2.283,3.021,3.655,6.336,3.868,10.15c0.355-0.147,0.711-0.294,1.067-0.442     c-2.4-2.625-4.756-4.988-7.801-6.842c-0.69-0.42-1.318,0.661-0.631,1.079c2.949,1.796,5.241,4.124,7.548,6.647     c0.36,0.394,1.097,0.097,1.067-0.442c-0.225-4.031-1.605-7.562-4.039-10.781c-0.235,0.306-0.47,0.612-0.706,0.918     c2.808,0.685,5.329,2.106,8.139,2.791c0.528,0.129,0.988-0.433,0.706-0.918c-1.53-2.634-3.412-4.706-6.344-5.784     c-2.09-0.768-4.252-0.42-2.906-2.982c0.983-1.871,1.292-3.962,1.429-6.035c0.028-0.421-0.418-0.69-0.791-0.603     c-1.224,0.287-2.348,0.646-3.149,1.698c-2.338,3.07-2.437,5.729-7.125,5.882c-4.166,0.135-6.87,5.044-7.837,8.438     c-0.105,0.369,0.195,0.822,0.603,0.791c3.468-0.264,5.749-2.913,8.848-4.22c-1.031,0.435-2.36,5.271-2.891,6.571     c-0.874,2.135-1.184,4.282-1.233,6.559c-0.012,0.543,0.692,0.831,1.067,0.442c1.235-1.28,2.229-2.649,3.242-4.108     c0.558-0.803,4.619-6.751,4.196-2.74c-0.468,4.434,0.221,9.375,1.75,13.549C28.835,54.063,30.043,53.739,29.766,52.98     L29.766,52.98z"/></g></g><g><g><path d="M64.114,22.776c-1.247,0.396-2.124,1.616-1.78,2.93c0.301,1.149,1.71,1.897,2.813,1.523     c2.308-0.783,2.375-4.276,0.737-5.688c-0.607-0.523-1.496,0.357-0.884,0.884c0.962,0.83,1.041,2.294,0.218,3.269     c-0.309,0.365-0.703,0.503-1.133,0.27c-0.991-0.536-0.545-1.695,0.361-1.983C65.211,23.738,64.884,22.531,64.114,22.776     L64.114,22.776z"/></g></g><g><g><path d="M67.326,22.937c-1.158,1.012-1.588,2.956-1.307,4.412c0.29,1.502,2.019,1.949,3.247,1.345     c1.267-0.623,1.5-2.447,1.458-3.678c-0.051-1.521-0.639-3.166-1.943-4.037c-0.672-0.449-1.297,0.634-0.631,1.079     c1.408,0.941,1.677,3.483,1.02,4.927c-0.495,1.087-1.883,0.924-1.997-0.322c-0.085-0.931,0.323-2.218,1.037-2.842     C68.818,23.289,67.93,22.408,67.326,22.937L67.326,22.937z"/></g></g><g><g><path d="M64.84,24.375c-0.556,1.425-0.999,2.991-0.966,4.531c0.025,1.19,0.868,2.51,2.134,2.607     c1.054,0.081,1.625-1.186,1.738-2.03c0.184-1.366-0.405-2.609-1.523-3.389c-0.663-0.463-1.287,0.622-0.631,1.079     c0.703,0.49,1.038,1.313,0.924,2.16c-0.073,0.543-0.341,1.206-0.891,0.692c-1.266-1.182-0.099-3.987,0.42-5.319     C66.338,23.955,65.129,23.632,64.84,24.375L64.84,24.375z"/></g></g><g><g><path d="M26.065,36.551c-1.247,1.931-0.762,4.168,0.465,5.98c0.195,0.288,0.541,0.396,0.855,0.224     c2.578-1.417,2.478-4.755-0.232-5.963c-0.729-0.325-1.366,0.752-0.631,1.079c1.837,0.819,2.052,2.805,0.232,3.805     c0.285,0.075,0.57,0.149,0.855,0.224c-0.984-1.453-1.48-3.146-0.465-4.718C27.583,36.502,26.5,35.876,26.065,36.551     L26.065,36.551z"/></g></g><g><g><path d="M9.329,86.074c3.64-0.677,7.169-1.826,10.847-2.307c3.898-0.51,7.488,1.107,11.29,1.454     c3.173,0.289,6.067-0.376,9.222-0.538c3.228-0.165,6.077,1.604,9.229,1.707c2.691,0.087,5.134-0.432,7.77-0.938     c3.805-0.731,6.189,1.55,9.684,0.978c3.461-0.567,6.399,0.552,9.699,0.226c3.81-0.376,6.728-2.469,10.765-1.513     c0.784,0.186,1.116-1.02,0.332-1.205c-2.417-0.573-4.751-0.371-7.145,0.25c-2.353,0.61-3.838,1.61-6.576,1.137     c-1.661-0.287-2.665-0.734-4.356-0.603c-2.075,0.162-2.938,0.951-5.47,0.295c-1.279-0.331-2.444-1.174-3.829-1.102     c-4.197,0.218-8.159,1.691-12.392,0.953c-2.645-0.462-4.996-1.368-7.711-1.435c-4.208-0.103-7.811,0.879-12.103,0     c-7.223-1.48-12.49,0.115-19.588,1.435C8.205,85.016,8.542,86.22,9.329,86.074L9.329,86.074z"/></g></g></g><text x="0" y="111" fill="#000000" font-size="5px" font-weight="bold" font-family="'Helvetica Neue', Helvetica, Arial-Unicode, Arial, Sans-serif">Created by faisalovers</text><text x="0" y="116" fill="#000000" font-size="5px" font-weight="bold" font-family="'Helvetica Neue', Helvetica, Arial-Unicode, Arial, Sans-serif">from the Noun Project</text></svg>