<svg xmlns="http://www.w3.org/2000/svg" viewBox="0 0 64 80" x="0px" y="0px"><g><path d="M46,32A14,14,0,1,0,32,46,14.015,14.015,0,0,0,46,32ZM27.352,43.062l.355-.355a1.028,1.028,0,0,0,.188-.26l.927-1.854L29.414,40h1.172l1.707,1.707A1,1,0,0,0,33,42h1.764l1.489.745.2.391a11.934,11.934,0,0,1-9.1-.074ZM43.819,30H41a1,1,0,0,0-.707.293l-1,1a1.028,1.028,0,0,0-.188.26l-.781,1.562-3.995.8L31.9,31.488l-.843-3.372.686-1.371,1.7-.85a1,1,0,0,0,.26-.188l2-2A1,1,0,0,0,36,23V20.7A12.017,12.017,0,0,1,43.819,30ZM20.938,27.352l1.24,1.241.927,1.854a1.028,1.028,0,0,0,.188.26l.885.886.742,1.484-.794,2.383-.718.718-1.855.927a1,1,0,0,0-.26.188l-.031.031a11.918,11.918,0,0,1-.324-9.972Zm1.395,11.729.259-.259,1.855-.927a1,1,0,0,0,.26-.188l1-1a1,1,0,0,0,.242-.391l1-3a1,1,0,0,0-.054-.763l-1-2a1.028,1.028,0,0,0-.188-.26l-.885-.886L23.9,27.553a1.028,1.028,0,0,0-.188-.26l-1.784-1.785A11.854,11.854,0,0,1,34,20.181v2.4l-1.592,1.592-1.855.927a1,1,0,0,0-.448.448l-1,2a1,1,0,0,0-.075.689l1,4a1,1,0,0,0,.263.465l3,3a.994.994,0,0,0,.9.273l5-1a1,1,0,0,0,.7-.533l.927-1.854L41.414,32H44a11.99,11.99,0,0,1-5.767,10.234l-.337-.679a1,1,0,0,0-.449-.45l-2-1A1,1,0,0,0,35,40H33.414l-1.707-1.707A1,1,0,0,0,31,38H29a1,1,0,0,0-.707.293l-1,1a1.028,1.028,0,0,0-.188.26l-.927,1.854-.67.67A12.089,12.089,0,0,1,22.333,39.081Z"/><path d="M59.971,12.343a1,1,0,0,0-.293-.707l-1.415-1.414A1,1,0,0,0,57.24,9.98L53.584,11.2l-.779-.779,5.973-3.583a1,1,0,0,0,.193-1.565L56.849,3.15a.993.993,0,0,0-1.023-.241l-7.9,2.633L45.535,3.149a3,3,0,0,0-4.242,4.245l2.391,2.391-2.633,7.9a1,1,0,0,0,.242,1.023l2.121,2.121a1,1,0,0,0,.707.293.987.987,0,0,0,.122-.008,1,1,0,0,0,.736-.477l3.583-5.973.779.779L48.123,19.1a1,1,0,0,0,.241,1.023l1.414,1.414a1,1,0,0,0,1.414,0l2.392-2.391,1.535.511a.987.987,0,0,0,.316.052,1,1,0,0,0,.707-.293L57.556,18a1,1,0,0,0,.242-1.023l-.512-1.536,2.392-2.391A1,1,0,0,0,59.971,12.343ZM55.872,5l.779.779-5.3,3.182-1.839-1.84ZM42.707,4.565a1,1,0,0,1,1.415,0L54.728,15.172l-1.415,1.414L42.707,5.979A1,1,0,0,1,42.707,4.565Zm1.215,13.944-.778-.78,2.122-6.363L47.1,13.205Zm6.563.905-.27-.27.707-2.121L51.9,18Zm5.657-5.656-.978-.978,2.122-.707.271.27Z"/><path d="M9,39a7.008,7.008,0,0,0-7,7c0,3.593,5.615,9.954,6.256,10.668a1,1,0,0,0,1.488,0C10.385,55.954,16,49.593,16,46A7.008,7.008,0,0,0,9,39ZM9,54.475C6.816,51.885,4,47.908,4,46a5,5,0,0,1,10,0C14,47.906,11.184,51.884,9,54.475Z"/><path d="M9,43a3,3,0,1,0,3,3A3,3,0,0,0,9,43Zm0,4a1,1,0,1,1,1-1A1,1,0,0,1,9,47Z"/><path d="M52.762,30.941l1.865.723a30.354,30.354,0,0,0,1.249-4.007L53.929,27.2A28.118,28.118,0,0,1,52.762,30.941Z"/><path d="M26.041,14.954,24.918,13.3c-1.13.766-2.248,1.607-3.322,2.5l1.279,1.537C23.9,16.485,24.964,15.684,26.041,14.954Z"/><path d="M33,11.26,32.276,9.4a35.7,35.7,0,0,0-3.793,1.749l.941,1.765A33.41,33.41,0,0,1,33,11.26Z"/><path d="M14.9,26.116,13.245,25A39.22,39.22,0,0,0,11.1,28.567l1.766.938A37.642,37.642,0,0,1,14.9,26.116Z"/><path d="M19.947,20.012,18.531,18.6c-.98.981-1.92,2.014-2.794,3.071l1.541,1.275C18.113,21.938,19.011,20.95,19.947,20.012Z"/><path d="M11.227,33.087l-1.866-.721a30.337,30.337,0,0,0-1.245,4.008l1.947.455A28.452,28.452,0,0,1,11.227,33.087Z"/><path d="M15.1,55.044a15.2,15.2,0,0,0,4.143,1.267l.316-1.975a13.156,13.156,0,0,1-3.6-1.1Z"/><path d="M37.935,49.061l1.119,1.658c1.132-.765,2.25-1.605,3.325-2.5L41.1,46.683C40.077,47.533,39.011,48.334,37.935,49.061Z"/><path d="M49.08,37.909l1.657,1.119a39.936,39.936,0,0,0,2.149-3.567l-1.767-.94A37.467,37.467,0,0,1,49.08,37.909Z"/><path d="M44.032,44.01l1.415,1.414c.98-.983,1.921-2.015,2.8-3.07L46.7,41.077C45.868,42.085,44.969,43.071,44.032,44.01Z"/><path d="M30.969,52.751l.724,1.865a35.5,35.5,0,0,0,3.795-1.746L34.549,51.1A33.213,33.213,0,0,1,30.969,52.751Z"/><path d="M23.388,54.5l.121,2a24.764,24.764,0,0,0,4.18-.63l-.46-1.947A22.748,22.748,0,0,1,23.388,54.5Z"/></g><text x="0" y="79" fill="#000000" font-size="5px" font-weight="bold" font-family="'Helvetica Neue', Helvetica, Arial-Unicode, Arial, Sans-serif">Created by Payungkead Im-anong</text><text x="0" y="84" fill="#000000" font-size="5px" font-weight="bold" font-family="'Helvetica Neue', Helvetica, Arial-Unicode, Arial, Sans-serif">from the Noun Project</text></svg>